<svg xmlns="http://www.w3.org/2000/svg" viewBox="0 0 340 340"><g id="Layer_15" data-name="Layer 15"><path d="M170,300.092s5.455-42.219,56.349-53.593,69.594-29.689,69.594-29.689,3.47,42.605-25.254,59.184Z" style="fill:#fff"/><path d="M33.677,245.253s74.573-22.778,134.363,53.184L55.834,272.969S50.705,254.817,33.677,245.253Z" style="fill:#fff"/><path d="M303.058,274.878C212.318,262.748,170,298.437,170,298.437s-42.318-35.689-133.057-23.559c0,0,3.032,26.986-5.365,41.054H308.423C300.025,301.864,303.058,274.878,303.058,274.878Z" style="fill:#fff"/><path d="M265.909,110.8a100.8,100.8,0,1,0-116.558,99.57l12.09,41.983L175.223,211.1A100.81,100.81,0,0,0,265.909,110.8Z" style="fill:#fff"/><path d="M144.431,150.931h39.115l-.7,10.145a13.111,13.111,0,0,0-.5,7.289l-.123,1.782a11.673,11.673,0,0,1-9.093,10.654,42.869,42.869,0,0,1-18.292,0,11.674,11.674,0,0,1-9.093-10.654l-.113-1.653c.848-1.735.519-4.262-.5-7.252Z" style="fill:#cbd6ea"/><path d="M202.885,102.473a38.9,38.9,0,1,0-68.139,25.639,37.117,37.117,0,0,1,8.108,16.08l1.577,6.739a81.182,81.182,0,0,0,39.115,0l1.578-6.744a38.146,38.146,0,0,1,8.287-16.282A38.722,38.722,0,0,0,202.885,102.473Z" style="fill:#ffc676"/><path d="M145.138,161.242l.5,7.252a101.528,101.528,0,0,0,18.618,1.742,85.888,85.888,0,0,0,18.1-1.871l.5-7.289C167.008,165,151.36,162.544,145.138,161.242Z" style="fill:#a3aed0"/><path d="M164.322,121.124c-.12,0-.24,0-.361-.008a7.541,7.541,0,0,1-7.037-5.8l-1.745-7.216a1.111,1.111,0,0,0-2.1-.185l-.945,2.156a7.87,7.87,0,0,1-7.21,4.714h-3.347a2.778,2.778,0,1,1,0-5.556h3.347a2.315,2.315,0,0,0,2.121-1.386l.944-2.157a6.668,6.668,0,0,1,12.59,1.108l1.745,7.216a2.041,2.041,0,0,0,3.916.181L169,106.117a6.1,6.1,0,0,1,11.456-.245l.23.59a4.44,4.44,0,0,0,4.16,2.841h.615a2.779,2.779,0,0,1,0,5.557h-.615a9.962,9.962,0,0,1-9.336-6.379l-.23-.592a.49.49,0,0,0-.5-.345h-.017a.5.5,0,0,0-.5.369l-2.755,8.068A7.535,7.535,0,0,1,164.322,121.124Z" style="fill:#f4914e"/><path d="M106.057,114.905H96.951a3.5,3.5,0,0,1,0-7h9.106a3.5,3.5,0,0,1,0,7Z" style="fill:#ffc676"/><path d="M163.988,47.808a3.5,3.5,0,0,1-3.5-3.5V35.2a3.5,3.5,0,0,1,7,0v9.1A3.5,3.5,0,0,1,163.988,47.808Z" style="fill:#ffc676"/><path d="M230.013,114.905h-9.106a3.5,3.5,0,0,1,0-7h9.106a3.5,3.5,0,0,1,0,7Z" style="fill:#ffc676"/><path d="M116.335,71.589a3.487,3.487,0,0,1-2.475-1.025l-6.438-6.438a3.5,3.5,0,0,1,4.949-4.95l6.439,6.438a3.5,3.5,0,0,1-2.475,5.975Z" style="fill:#ffc676"/><path d="M204.743,65.108a3.5,3.5,0,0,1-2.474-5.975l6.438-6.438a3.5,3.5,0,0,1,4.949,4.95l-6.438,6.438A3.487,3.487,0,0,1,204.743,65.108Z" style="fill:#ffc676"/><path d="M149.445,74.641A30.1,30.1,0,0,0,133.591,93a5.165,5.165,0,0,0,6.066,6.538,76.091,76.091,0,0,0,7.808-2.152,13.5,13.5,0,0,0,9.055-10.841A36.426,36.426,0,0,0,156.853,79,5.168,5.168,0,0,0,149.445,74.641Z" style="fill:#fff"/><path d="M173.5,302.024v-7.876h-7v7.869C117.831,282,55.217,284.454,37.474,285.649c.01,2.172-.041,4.56-.187,7.047,16.5-1.079,81.578-3.745,129.213,16.922v6.314h7V309.62c46.608-20.161,110.9-16.435,129.357-14.836-.2-2.462-.292-4.853-.32-7.08C282.737,285.969,221.045,282.593,173.5,302.024Z" style="fill:#b8c1dd"/><path d="M30.088,313.642H309.912a9.048,9.048,0,0,1,9.048,9.048V330a0,0,0,0,1,0,0H21.04a0,0,0,0,1,0,0v-7.31A9.048,9.048,0,0,1,30.088,313.642Z" style="fill:#d36f74"/><path d="M30.088,310.143A12.561,12.561,0,0,0,17.54,322.69V330a3.5,3.5,0,0,0,3.5,3.5H318.96a3.5,3.5,0,0,0,3.5-3.5v-7.31a12.561,12.561,0,0,0-12.548-12.547h-.4c-5.27-13.621-3-34.659-2.98-34.875a3.5,3.5,0,0,0-3.015-3.859c-6.764-.9-13.239-1.528-19.473-1.946,17.789-20.218,15.5-51.5,15.384-52.937a3.5,3.5,0,0,0-5.93-2.224c-.183.177-18.855,17.816-67.916,28.781-27.421,6.128-42,20.624-49.407,31.706a66.392,66.392,0,0,0-7.685,15.523c-26.427-35.14-60.584-46.745-85.2-50.187-28.1-3.93-49.59,1.506-50.491,1.74a3.5,3.5,0,0,0-.836,6.44c10.812,6.072,16.463,15.945,18.939,21.526q-7,.594-14.423,1.578a3.5,3.5,0,0,0-3.015,3.859c.025.216,2.29,21.254-2.98,34.875Zm197.025-60.229c36.12-8.072,56.328-19.572,65.4-25.937-.383,10.981-3.132,32.484-17.915,45-52.319-1.688-84.475,12.759-98.551,21.129C180.762,278.15,193.607,257.4,227.113,249.914ZM173.5,300.171c7.451-5.4,48.367-31.707,125.788-22.247-.433,6.456-.826,20.705,2.816,32.219H173.5ZM42.559,247.159a143.541,143.541,0,0,1,40.024-.065c29.427,4.173,53.928,17.122,73.07,38.549C138,277.03,106.01,266.493,58.256,269.3A56.07,56.07,0,0,0,42.559,247.159Zm-1.847,30.765c77.433-9.465,118.352,16.86,125.788,22.247v9.972H37.883C41.528,298.628,41.145,284.382,40.712,277.924Zm269.2,39.219a5.553,5.553,0,0,1,5.548,5.547v3.81H24.54v-3.81a5.553,5.553,0,0,1,5.548-5.547Z" style="fill:#3c3c4f"/><path d="M60.811,110.8A104.327,104.327,0,0,0,146.6,213.455l11.48,39.865a3.5,3.5,0,0,0,3.29,2.531h.074a3.5,3.5,0,0,0,3.319-2.392l13.073-39.133A104.3,104.3,0,1,0,60.811,110.8Zm201.6,0a96.924,96.924,0,0,1-87.533,96.813,3.5,3.5,0,0,0-2.973,2.374l-10.215,30.578L152.714,209.4a3.5,3.5,0,0,0-2.82-2.488A97.3,97.3,0,1,1,262.409,110.8Z" style="fill:#3c3c4f"/><path d="M164,60.076a42.389,42.389,0,0,0-31.884,70.345,33.707,33.707,0,0,1,7.329,14.568l1.513,6.464,1.3,18.934A15.225,15.225,0,0,0,154.1,184.223a46.569,46.569,0,0,0,19.768,0,15.225,15.225,0,0,0,11.848-13.836l1.3-18.934,1.513-6.468a34.781,34.781,0,0,1,7.525-14.789A42.389,42.389,0,0,0,164.521,60.08C164.347,60.077,164.174,60.076,164,60.076Zm14.735,109.832a8.191,8.191,0,0,1-6.339,7.472,39.591,39.591,0,0,1-16.815,0,8.191,8.191,0,0,1-6.34-7.472l-1-14.578a84.378,84.378,0,0,0,31.495,0Zm20.651-67.435a35.359,35.359,0,0,1-8.622,23.141,41.824,41.824,0,0,0-9.048,17.776l-1.081,4.621a77.937,77.937,0,0,1-33.293,0l-1.08-4.616a40.725,40.725,0,0,0-8.886-17.592A35.389,35.389,0,0,1,164,67.076l.437,0A35.524,35.524,0,0,1,199.386,102.473Z" style="fill:#3c3c4f"/></g></svg>